<svg xmlns="http://www.w3.org/2000/svg"
     width="361.199mm" height="361.199mm"
     viewBox="0 0 1024 1024">
    <style>
        #logo {
        fill: url(#gradient);
        fill-opacity: 1;
        }
    </style>
    <defs>
        <linearGradient id="gradient" x1="0%" y1="100%" x2="100%" y2="100%">
            <stop offset="0%" style="stop-color:#b000e5;stop-opacity:1"/>
            <stop offset="100%" style="stop-color:#f28d00;stop-opacity:1"/>
        </linearGradient>
    </defs>
    <path id="logo"
          stroke="none" stroke-width="1"
          d="M 227.00,551.00
           C 213.92,556.23 205.17,560.95 195.00,571.00
             186.56,579.35 181.87,585.19 176.78,596.00
             163.90,623.39 172.42,651.27 193.00,672.00
             197.91,676.94 204.00,682.36 210.00,685.91
             220.47,692.09 248.57,697.98 261.00,698.00
             281.92,698.03 295.32,697.71 315.00,688.69
             349.92,672.69 374.24,638.71 383.37,602.00
             386.83,588.11 388.80,571.17 386.24,557.00
             384.70,548.46 379.06,545.79 373.90,539.00
             367.82,531.01 361.93,520.21 357.86,511.00
             347.62,487.84 338.04,451.32 338.00,426.00
             338.00,426.00 338.00,403.00 338.00,403.00
             338.01,394.97 339.80,381.98 341.40,374.00
             349.15,335.25 367.78,301.31 398.00,275.43
             408.71,266.25 422.40,256.59 435.00,250.25
             435.00,250.25 451.00,242.31 451.00,242.31
             453.67,241.08 457.40,239.91 459.27,237.61
             461.16,235.28 462.36,227.32 463.12,224.00
             463.12,224.00 472.42,180.00 472.42,180.00
             472.42,180.00 499.21,54.00 499.21,54.00
             499.21,54.00 507.58,15.00 507.58,15.00
             509.02,8.60 511.30,3.19 519.00,3.10
             526.62,3.00 529.26,8.56 530.60,15.00
             530.60,15.00 539.12,55.00 539.12,55.00
             539.12,55.00 556.21,136.00 556.21,136.00
             556.21,136.00 576.00,229.00 576.00,229.00
             576.52,231.51 577.26,235.60 578.85,237.59
             580.73,239.92 594.22,245.31 598.00,247.26
             611.35,254.14 627.71,264.48 639.00,274.29
             671.00,302.07 690.41,336.25 697.41,378.00
             698.72,385.77 699.99,394.13 700.00,402.00
             700.00,402.00 700.00,427.00 700.00,427.00
             699.96,450.70 690.89,486.17 681.57,508.00
             677.71,517.05 671.60,529.12 665.84,537.00
             662.72,541.27 654.28,549.59 652.87,553.01
             650.40,559.04 650.92,572.15 651.00,579.00
             651.12,589.26 654.40,602.27 657.67,612.00
             668.23,643.42 690.56,673.25 721.00,687.68
             741.19,697.25 755.34,698.10 777.00,698.00
             787.03,697.95 798.28,695.31 808.00,692.87
             813.62,691.46 823.20,688.81 828.00,685.88
             855.33,669.21 874.05,637.05 864.56,605.00
             862.11,596.70 857.31,587.88 852.10,581.00
             840.14,565.21 828.23,559.01 811.00,551.00
             818.04,529.78 852.55,527.88 870.00,535.34
             895.69,546.31 916.67,583.26 917.00,611.00
             917.12,621.49 916.62,629.71 914.10,640.00
             905.85,673.82 876.86,712.51 848.00,731.31
             841.33,735.65 827.63,741.78 820.00,744.26
             778.95,757.55 725.00,749.53 689.00,725.92
             660.71,707.37 642.96,683.16 630.60,652.00
             626.15,640.78 621.02,625.03 621.00,613.00
             621.00,613.00 621.00,586.00 621.00,586.00
             621.00,586.00 620.00,569.00 620.00,569.00
             620.00,569.00 620.00,537.00 620.00,537.00
             620.00,537.00 612.00,537.00 612.00,537.00
             618.63,528.99 622.60,530.14 634.97,512.00
             649.96,490.02 660.36,454.58 661.01,428.00
             661.01,428.00 661.91,416.00 661.91,416.00
             660.15,384.99 653.90,357.96 635.98,332.00
             625.20,316.40 611.22,303.76 595.00,294.00
             572.10,280.23 541.90,269.69 515.00,270.00
             504.57,270.13 487.08,274.96 477.00,278.33
             457.17,284.97 438.85,294.50 423.00,308.29
             393.27,334.15 379.60,368.48 376.91,407.00
             376.91,407.00 376.01,416.00 376.01,416.00
             376.01,416.00 376.91,428.00 376.91,428.00
             378.88,456.70 385.94,485.54 401.69,510.00
             405.64,516.13 409.84,521.81 415.01,526.99
             418.34,530.31 422.65,532.91 425.00,537.00
             425.00,537.00 418.00,537.00 418.00,537.00
             418.00,537.00 417.00,612.00 417.00,612.00
             416.98,624.39 412.79,636.43 408.69,648.00
             397.25,680.34 377.91,706.75 349.00,725.66
             314.07,748.51 263.27,757.06 223.00,745.57
             214.89,743.26 199.07,736.84 192.00,732.54
             180.30,725.41 167.78,713.35 158.87,703.00
             136.38,676.87 120.59,647.17 121.00,612.00
             121.25,590.58 131.13,569.98 144.87,554.00
             151.61,546.16 156.34,540.71 166.00,536.31
             184.38,527.94 218.40,529.04 227.00,551.00 Z
           M 520.00,82.00
           C 520.00,82.00 518.00,82.00 518.00,82.00
             518.00,82.00 514.21,99.00 514.21,99.00
             514.21,99.00 508.00,141.00 508.00,141.00
             508.00,141.00 530.00,141.00 530.00,141.00
             530.00,141.00 524.00,101.00 524.00,101.00
             524.00,101.00 520.00,82.00 520.00,82.00 Z
           M 536.00,187.00
           C 536.00,187.00 533.34,165.00 533.34,165.00
             533.34,165.00 530.28,156.99 530.28,156.99
             530.28,156.99 525.00,156.00 525.00,156.00
             525.00,156.00 507.70,156.99 507.70,156.99
             507.70,156.99 504.60,165.00 504.60,165.00
             504.60,165.00 502.00,187.00 502.00,187.00
             502.00,187.00 536.00,187.00 536.00,187.00 Z
           M 502.00,187.00
           C 502.00,187.00 501.00,187.00 501.00,187.00
             501.00,187.00 502.00,188.00 502.00,188.00
             502.00,188.00 502.00,187.00 502.00,187.00 Z
           M 537.00,187.00
           C 537.00,187.00 536.00,187.00 536.00,187.00
             536.00,187.00 537.00,188.00 537.00,188.00
             537.00,188.00 537.00,187.00 537.00,187.00 Z
           M 539.00,203.00
           C 539.00,203.00 499.00,203.00 499.00,203.00
             499.00,203.00 498.00,217.00 498.00,217.00
             498.00,217.00 540.00,217.00 540.00,217.00
             540.00,217.00 539.00,203.00 539.00,203.00 Z
           M 550.00,258.00
           C 549.66,253.85 547.34,238.29 544.30,235.99
             542.55,234.67 531.63,234.01 529.00,234.08
             529.00,234.08 503.00,234.08 503.00,234.08
             501.10,234.35 495.04,234.97 493.70,235.99
             490.52,238.41 488.35,253.72 488.00,258.00
             488.00,258.00 550.00,258.00 550.00,258.00 Z
           M 460.00,413.52
           C 473.59,411.37 487.03,413.81 496.91,424.04
             514.44,442.21 508.99,474.92 486.00,485.68
             478.16,489.35 474.35,489.10 466.00,489.00
             449.40,488.80 434.96,476.11 431.52,460.00
             430.84,456.84 431.00,453.24 431.00,450.00
             431.03,431.32 442.15,418.31 460.00,413.52 Z
           M 567.00,413.52
           C 580.59,411.37 594.03,413.81 603.91,424.04
             621.44,442.21 615.99,474.92 593.00,485.68
             585.16,489.35 581.35,489.10 573.00,489.00
             556.40,488.80 541.96,476.11 538.52,460.00
             537.84,456.84 538.00,453.24 538.00,450.00
             538.03,431.32 549.15,418.31 567.00,413.52 Z
           M 181.00,760.00
           C 181.00,760.00 204.00,767.81 204.00,767.81
             206.99,768.94 212.52,770.60 214.79,772.51
             214.79,772.51 225.67,789.00 225.67,789.00
             231.16,797.11 238.56,805.33 246.00,811.70
             271.42,833.46 304.93,834.97 334.00,819.68
             359.60,806.22 370.00,791.07 385.35,768.00
             408.43,733.33 418.79,711.76 430.98,672.00
             435.77,656.35 439.60,638.18 442.25,622.00
             443.45,614.67 442.11,606.74 451.00,606.00
             451.00,606.00 451.00,647.00 451.00,647.00
             451.00,647.00 450.00,666.00 450.00,666.00
             450.00,666.00 449.09,677.00 449.09,677.00
             446.99,706.96 441.52,736.47 432.00,765.00
             422.03,794.88 405.93,824.73 382.00,845.71
             359.09,865.80 330.34,877.19 300.00,878.91
             300.00,878.91 289.00,878.04 289.00,878.04
             261.18,876.83 235.52,868.53 215.17,848.72
             193.37,827.50 181.09,790.08 181.00,760.00 Z
           M 857.00,762.00
           C 856.75,789.22 846.52,823.18 828.70,844.00
             807.41,868.88 779.86,878.65 748.00,880.04
             748.00,880.04 739.00,880.92 739.00,880.92
             723.01,880.92 699.28,874.33 685.00,867.19
             633.29,841.34 609.20,787.52 596.88,734.00
             591.60,711.05 588.04,682.50 588.00,659.00
             588.00,659.00 587.00,644.00 587.00,644.00
             587.00,644.00 587.00,615.00 587.00,615.00
             587.05,612.77 587.08,607.43 590.91,609.17
             594.92,610.98 595.55,622.80 596.25,627.00
             599.03,643.69 603.20,662.91 608.34,679.00
             616.84,705.58 627.64,731.25 642.42,755.00
             642.42,755.00 654.46,773.00 654.46,773.00
             658.90,779.89 662.93,786.74 668.30,793.00
             686.22,813.91 713.63,831.67 742.00,832.00
             769.30,832.31 790.65,818.64 807.54,798.00
             807.54,798.00 823.38,774.65 823.38,774.65
             825.98,772.37 830.71,771.15 834.00,769.95
             834.00,769.95 857.00,762.00 857.00,762.00 Z
           M 504.00,672.00
           C 507.06,676.16 505.98,682.04 506.00,687.00
             506.00,687.00 507.00,703.00 507.00,703.00
             507.00,703.00 507.00,740.00 507.00,740.00
             507.00,740.00 506.00,755.00 506.00,755.00
             506.00,755.00 506.00,770.00 506.00,770.00
             506.00,770.00 505.04,781.00 505.04,781.00
             505.04,781.00 502.17,821.00 502.17,821.00
             498.49,857.79 492.70,896.55 478.80,931.00
             468.28,957.07 450.64,980.35 420.00,980.00
             405.58,979.83 394.90,971.48 385.87,961.00
             370.55,943.21 358.02,910.65 358.00,887.00
             363.28,888.43 369.71,891.11 373.37,895.32
             381.98,905.23 393.23,942.43 418.00,940.91
             427.01,940.35 432.99,935.35 438.91,929.00
             450.60,916.45 457.61,899.75 463.80,884.00
             480.61,841.18 490.24,780.94 495.72,735.00
             495.72,735.00 499.00,691.00 499.00,691.00
             499.01,683.86 498.85,677.37 504.00,672.00 Z
           M 536.00,674.00
           C 537.46,674.75 538.26,674.88 539.40,676.29
             542.04,679.56 541.95,691.60 542.00,696.00
             542.00,696.00 542.91,706.00 542.91,706.00
             542.91,706.00 545.17,735.00 545.17,735.00
             548.66,769.96 554.60,804.90 563.13,839.00
             567.46,856.35 575.28,883.12 582.78,899.00
             590.42,915.19 604.86,943.53 626.00,941.91
             649.68,940.09 658.73,906.18 668.21,896.10
             671.80,892.29 678.01,889.42 683.00,888.00
             682.99,898.12 681.77,901.40 679.37,911.00
             676.35,923.07 671.31,937.20 665.13,948.00
             653.04,969.13 631.60,987.12 606.00,979.23
             601.95,977.98 595.54,974.63 592.00,972.25
             586.36,968.46 579.80,962.44 575.76,957.00
             561.93,938.40 552.36,904.80 547.80,882.00
             542.20,854.01 538.20,825.49 536.96,797.00
             536.96,797.00 536.00,786.00 536.00,786.00
             536.00,786.00 534.96,767.00 534.96,767.00
             534.96,767.00 534.96,751.00 534.96,751.00
             534.96,751.00 534.00,739.00 534.00,739.00
             534.00,739.00 534.00,706.00 534.00,706.00
             534.00,706.00 535.00,689.00 535.00,689.00
             535.01,683.82 534.57,679.03 536.00,674.00 Z"
    />
</svg>
